<svg version="1.1" id="Layer_1" xmlns="http://www.w3.org/2000/svg" xmlns:xlink="http://www.w3.org/1999/xlink" x="0px" y="0px"
	 width="100%" viewBox="0 0 247 204" enable-background="new 0 0 247 204" xml:space="preserve">
<path fill="#FEFEFF" opacity="1.000000" stroke="none" 
	d="
M248.000000,77.000000 
	C248.000000,120.000000 248.000000,162.500000 248.000000,205.000000 
	C165.666672,205.000000 83.333336,205.000000 1.000000,205.000000 
	C1.000000,137.000000 1.000000,69.000000 1.000000,1.000000 
	C83.333336,1.000000 165.666672,1.000000 248.000000,1.000000 
	C248.000000,26.166666 248.000000,51.333332 248.000000,77.000000 
M20.348421,180.139847 
	C14.881725,180.139847 9.415030,180.139847 3.948334,180.139847 
	C47.054882,205.777802 92.221352,210.411560 137.791199,190.087006 
	C189.926239,166.834351 216.207275,123.864082 221.466385,68.054131 
	C222.505997,57.021732 224.395569,48.787910 233.625717,42.200569 
	C238.389328,38.800880 241.674149,33.329102 245.627136,28.793570 
	C245.343475,28.501335 245.059814,28.209099 244.776169,27.916864 
	C236.476685,30.240694 228.177200,32.564526 219.877716,34.888355 
	C219.685318,34.438274 219.492935,33.988197 219.300537,33.538120 
	C228.781326,27.186668 235.817581,19.013475 239.859787,7.057976 
	C237.609528,8.078310 236.496658,8.656904 235.332001,9.098999 
	C227.733185,11.983488 220.168564,14.971618 212.479736,17.594553 
	C210.873337,18.142563 208.180664,18.007992 207.029419,16.999632 
	C196.100418,7.427071 184.259308,2.114884 168.994293,3.482094 
	C161.006668,4.197505 153.683502,5.562276 146.944687,9.322279 
	C134.409424,16.316471 126.061295,27.018797 123.115677,41.082520 
	C121.576576,48.430954 121.899010,56.169289 121.317299,64.656326 
	C80.296944,61.538895 46.332245,43.926144 19.043015,12.152114 
	C13.924075,21.083744 11.781564,30.060326 12.343065,39.501984 
	C13.304286,55.664948 20.437580,68.739487 33.964420,78.793327 
	C25.594358,79.741638 19.123980,76.003822 11.691834,73.254036 
	C13.339396,99.092628 26.450752,115.279480 50.205528,124.006012 
	C43.568386,124.558365 36.931248,125.110710 30.078520,125.681000 
	C37.783272,145.599854 53.149853,156.763199 75.927048,159.094391 
	C63.791164,168.580185 50.813156,174.658417 36.528164,177.860977 
	C31.492876,178.989868 26.290277,179.372452 20.348421,180.139847 
z"/>
<path fill="#1D9BF0" opacity="1.000000" stroke="none" 
	d="
M20.756245,180.117798 
	C26.290277,179.372452 31.492876,178.989868 36.528164,177.860977 
	C50.813156,174.658417 63.791164,168.580185 75.927048,159.094391 
	C53.149853,156.763199 37.783272,145.599854 30.078520,125.681000 
	C36.931248,125.110710 43.568386,124.558365 50.205528,124.006012 
	C26.450752,115.279480 13.339396,99.092628 11.691834,73.254036 
	C19.123980,76.003822 25.594358,79.741638 33.964420,78.793327 
	C20.437580,68.739487 13.304286,55.664948 12.343065,39.501984 
	C11.781564,30.060326 13.924075,21.083744 19.043015,12.152114 
	C46.332245,43.926144 80.296944,61.538895 121.317299,64.656326 
	C121.899010,56.169289 121.576576,48.430954 123.115677,41.082520 
	C126.061295,27.018797 134.409424,16.316471 146.944687,9.322279 
	C153.683502,5.562276 161.006668,4.197505 168.994293,3.482094 
	C184.259308,2.114884 196.100418,7.427071 207.029419,16.999632 
	C208.180664,18.007992 210.873337,18.142563 212.479736,17.594553 
	C220.168564,14.971618 227.733185,11.983488 235.332001,9.098999 
	C236.496658,8.656904 237.609528,8.078310 239.859787,7.057976 
	C235.817581,19.013475 228.781326,27.186668 219.300537,33.538120 
	C219.492935,33.988197 219.685318,34.438274 219.877716,34.888355 
	C228.177200,32.564526 236.476685,30.240694 244.776169,27.916864 
	C245.059814,28.209099 245.343475,28.501335 245.627136,28.793570 
	C241.674149,33.329102 238.389328,38.800880 233.625717,42.200569 
	C224.395569,48.787910 222.505997,57.021732 221.466385,68.054131 
	C216.207275,123.864082 189.926239,166.834351 137.791199,190.087006 
	C92.221352,210.411560 47.054882,205.777802 3.948334,180.139847 
	C9.415030,180.139847 14.881725,180.139847 20.756245,180.117798 
z"/>
</svg>